{"title":"The Incredible Burt Wonderstone 2013 English Polish DVD-R (RLG)","uid":9339543,"size":4658137088,"categoryP":"video","categoryS":"movies_dvdr","magnet":"?xt=urn:btih:54c3cd4bf2eaf333f09672390d8d664d9c4b8707&amp;dn=The+Incredible+Burt+Wonderstone+2013+English+Polish+DVD-R+%28RLG%29&amp;tr=udp%3A%2F%2Ftracker.openbittorrent.com%3A80&amp;tr=udp%3A%2F%2Fopen.demonii.com%3A1337&amp;tr=udp%3A%2F%2Ftracker.coppersurfer.tk%3A6969&amp;tr=udp%3A%2F%2Fexodus.desync.com%3A6969","seeders":0,"leechers":0,"uploader":"RedLegsGreaves","files":-1,"time":1386903394,"description":" &lt;a href=&quot;http://www.imdb.com/title/tt0790628/&quot; rel=&quot;nofollow&quot; target=&quot;_NEW&quot;&gt;http://www.imdb.com/title/tt0790628/&lt;/a&gt;\nWhen a street magician's stunts begins to make their show look stale, superstar magicians Burt Wonderstone and Anton Marvelton look to salvage on their act - and their friendship - by staging their own daring stunt.\n\nLanguages: English , Polish\nSubtitles: English, Polish, Russian, Estonian, Latvian, Serbian, Turkish, Croatian, Slovenian, Bulgarian, Ukrainian, Lithuanian\n\nFor Newer Users.\nSimply Drag downloaded folder to your Media Player. This is a PAL DVD.\nThis is ripped so you would have best quality, menu, bonus/special feature, language options etc.\nNote:DVDs may not have have all* features.\n\nimage\n\nVideo\nID : 224 (0xE0)\nFormat : MPEG Video\nFormat version : Version 2\nFormat profile : Main@Main\nFormat settings, BVOP : Yes\nFormat settings, Matrix : Custom\nFormat settings, GOP : Variable\nDuration : 22mn 25s\nBit rate mode : Variable\nBit rate : 5 491 Kbps\nMaximum bit rate : 7 500 Kbps\nWidth : 720 pixels\nHeight : 576 pixels\nDisplay aspect ratio : 16:9\nFrame rate : 25.000 fps\nStandard : PAL\nColor space : YUV\nChroma subsampling : 4:2:0\nBit depth : 8 bits\nScan type : Interlaced\nScan order : Top Field First\nCompression mode : Lossy\nBits/(Pixel*Frame) : 0.530\nTime code of first frame : 01:21:34:24\nTime code source : Group of pictures header\nStream size : 880 MiB (86%)\n\nAudio\nID : 189 (0xBD)-128 (0x80)\nFormat : AC-3\nFormat/Info : Audio Coding 3\nMode extension : CM (complete main)\nFormat settings, Endianness : Big\nMuxing mode : DVD-Video\nDuration : 22mn 25s\nBit rate mode : Constant\nBit rate : 384 Kbps\nChannel count : 6 channels\nChannel positions : Front: L C R, Side: L R, LFE\nSampling rate : 48.0 KHz\nBit depth : 16 bits\nCompression mode : Lossy\nDelay relative to video : -160ms\nStream size : 61.6 MiB (6%)","torrent":{"xt":"urn:btih:54c3cd4bf2eaf333f09672390d8d664d9c4b8707","amp;dn":"The+Incredible+Burt+Wonderstone+2013+English+Polish+DVD-R+%28RLG%29","amp;tr":["udp%3A%2F%2Ftracker.openbittorrent.com%3A80","udp%3A%2F%2Fopen.demonii.com%3A1337","udp%3A%2F%2Ftracker.coppersurfer.tk%3A6969","udp%3A%2F%2Fexodus.desync.com%3A6969"],"infoHash":"54c3cd4bf2eaf333f09672390d8d664d9c4b8707","infoHashBuffer":{"type":"Buffer","data":[84,195,205,75,242,234,243,51,240,150,114,57,13,141,102,77,156,75,135,7]},"announce":[],"urlList":[]}}